<?xml version="1.0" encoding="UTF-8"?>
<svg width="28px" height="21px" viewBox="0 0 28 21" version="1.1" xmlns="http://www.w3.org/2000/svg" xmlns:xlink="http://www.w3.org/1999/xlink">
    <title>Path</title>
    <g id="Page-1" stroke="none" stroke-width="1" fill="none" fill-rule="evenodd">
        <g id="memory" fill="#B7B7B7" fill-rule="nonzero">
            <path d="M25.8462,15.7362 L25.8462,12.568 C24.654,11.9871 23.6923,10.8278 23.6923,9.17947 L23.6923,9.17685 C23.6923,7.52979 24.6551,6.37186 25.8462,5.79093 L25.8462,2.62271 L9.69231,2.62271 C9.68692,2.62271 9.68262,2.62271 9.67723,2.62271 C9.086,2.62271 8.60031,2.03129 8.60031,1.31135 C8.60031,0.59142 9.086,0 9.67723,0 C9.68262,0 9.68692,0 9.69231,0 L26.9231,0 C27.5143,0 28,0.59142 28,1.31135 L28,6.55676 C28,7.2767 27.5143,7.86812 26.9231,7.86812 L26.9209,7.86812 C26.3157,7.86812 25.8462,8.43987 25.8462,9.17685 L25.8462,9.17947 C25.8462,9.92038 26.3146,10.4908 26.9231,10.4908 C27.5143,10.4908 28,11.0822 28,11.8022 L28,17.0476 C28,17.7675 27.5143,18.3589 26.9231,18.3589 L25.8462,18.3589 L25.8462,19.6703 C25.8462,19.6768 25.8462,19.6821 25.8462,19.6886 C25.8462,20.4086 25.3605,21 24.7692,21 C24.178,21 23.6923,20.4086 23.6923,19.6886 C23.6923,19.6821 23.6923,19.6768 23.6923,19.6703 L23.6923,18.3589 L21.5385,18.3589 L21.5385,19.6703 C21.5385,19.6768 21.5385,19.6821 21.5385,19.6886 C21.5385,20.4086 21.0528,21 20.4615,21 C19.8703,21 19.3846,20.4086 19.3846,19.6886 C19.3846,19.6821 19.3846,19.6768 19.3846,19.6703 L19.3846,18.3589 L12.9231,18.3589 L12.9231,19.6703 C12.9231,19.6768 12.9231,19.6821 12.9231,19.6886 C12.9231,20.4086 12.4374,21 11.8462,21 C11.2549,21 10.7692,20.4086 10.7692,19.6886 C10.7692,19.6821 10.7692,19.6768 10.7692,19.6703 L10.7692,18.3589 L8.61539,18.3589 L8.61539,19.6703 C8.61539,19.6768 8.61539,19.6821 8.61539,19.6886 C8.61539,20.4086 8.12969,21 7.53846,21 C6.94723,21 6.46154,20.4086 6.46154,19.6886 C6.46154,19.6821 6.46154,19.6768 6.46154,19.6703 L6.46154,18.3589 L4.30769,18.3589 L4.30769,19.6703 C4.30769,19.6768 4.30769,19.6821 4.30769,19.6886 C4.30769,20.4086 3.822,21 3.23077,21 C2.63954,21 2.15385,20.4086 2.15385,19.6886 C2.15385,19.6821 2.15385,19.6768 2.15385,19.6703 L2.15385,18.3589 L1.07692,18.3589 C0.485692,18.3589 0,17.7675 0,17.0476 L0,11.8022 C0,11.0822 0.485692,10.4908 1.07692,10.4908 C1.68538,10.4908 2.15385,9.92038 2.15385,9.17947 L2.15385,9.17685 C2.15385,8.43987 1.68431,7.86812 1.07908,7.86812 L1.07692,7.86812 C0.485692,7.86812 0,7.2767 0,6.55676 L0,1.31135 C0,0.59142 0.485692,0 1.07692,0 L5.38462,0 C5.39,0 5.39431,0 5.39969,0 C5.99092,0 6.47662,0.59142 6.47662,1.31135 C6.47662,2.03129 5.99092,2.62271 5.39969,2.62271 C5.39431,2.62271 5.39,2.62271 5.38462,2.62271 L2.15385,2.62271 L2.15385,5.79093 C3.34492,6.37186 4.30769,7.52979 4.30769,9.17685 L4.30769,9.17947 C4.30769,10.8278 3.346,11.9871 2.15385,12.568 L2.15385,15.7362 L25.8462,15.7362 Z" id="Path"></path>
        </g>
    </g>
</svg>